
<svg version="1.1" id="Layer_1" xmlns="http://www.w3.org/2000/svg" xmlns:xlink="http://www.w3.org/1999/xlink" x="0px" y="0px"
	 viewBox="0 267.9 800.1 264.3" enable-background="new 0 267.9 800.1 264.3" xml:space="preserve">
<rect y="267.9" fill="#FFFFFF" width="800" height="152.1"/>
<path fill="#34495E" d="M795.5,367.5v-10h-4.6v-30h-11.3v-12.1h-3.3v-1.3h0.4v-0.8h-2.5v-2.2l-0.4-0.2V310h-1.5l-12-5.8h-1.1v-0.8
	h-16.7v0.8h-1l-12,5.8H728v1l-0.4,0.2v2.2h-2.1V305h-19.6v62.5h-2.1v-20h-5.4v-5h2.5l-2.5-1.5v-0.6h-8.3v-13.8h-19.6v13.8h-20.8
	v-49.6h-12.1v3.8H633l-2.5,1.5v2.2h-4.3l-2.8,1.5v3.1h-15.8v-3.1l-2.5-1.5h-4.2v-2.2l-2.7-1.5h-4.4v-3.8h-12.5v42.1l0,0v31.7h-1.7
	v-6.7h-4.6v-28.1v-0.3v-0.8h-2.5v-11.3h-3.3v-1.7h-2.1V315h-2.1v-1.3h-1.7v1.3h-2.5v-0.4H553v0.4h-1.3v0.8h-2.5v1.7h-2.9v12.1h-12.5
	v-0.8h-11.3v0.8v0.3v11.4h-5v-3.8h-8.3v-5.8h-2.9v-17.1h-16.3v28.3h-12.9v-42.5l-1.2-1.2h-0.9v-1.2l-0.8-0.9h-0.8v-6l-0.9-0.7h-0.8
	v-2.9l-0.5-0.5h-0.8v-3.3l-0.6-0.5h-0.6v-2.1H468v-0.4h-1.3v-0.1l-0.6-0.7h-0.6v-2.5h-0.8v-1.7h-1.3v-5.4h0.8v-0.8h-0.8v-1.7H463
	v1.7h-0.8v0.8h0.8v5.4h-0.8v1.7h-0.8V277h-1.7v-0.8h-0.8v1.3H458v-2.9h-0.4v2.9h-0.4v2.5h-0.8l-0.8,0.7v0.1h-1.3v0.4h-0.8v2.1h-0.8
	l-0.8,0.5v3.3h-0.5l-0.7,0.5v2.9h-0.6l-1.1,0.7v6h-0.6l-0.6,0.9v1.2h-1.1l-1,1.2v20.9h-9.2V307h-4.6v-2.9h-6.5l-8.5,2.9h-2.9v26.3
	h-2.1v0.4h-0.8v2.5h-4.2v-0.4h-5v0.4h-1.7v9.2h-5.8v6.7h-5.8v-4.6h-20V305h-34.2v-4.6h-2.5v-0.8h0.8v-0.4h-0.8v-0.8h0.4V297h-7.5
	v1.3h0.8v0.8h-1.3v0.4h1.3v0.8h-2.9v4.8v23.6h-2.1v10.4h-14.6v-8.3h-27.1V350h-3.3v-22.5h-11.3v-24.1v-0.9h-30.4v0.8h-3.8v-0.8
	h-11.7v65h-3.3v-14.6h-3.3v-4.2h-14.6v4.2h-2.9v-9.6h-10.8v-27.1h-7.1v-4l-12.5-5v-2.7h-0.4v-0.8H163v-7.5h-0.8v7.5h-0.4v0.8h-0.4
	v2.7l-12.5,5v4h-7.5v45.8h-2.1v-7.5h-17.1v7.5l0,0v-35.7l-22.2-2.7h-1.8l-22.3,2.7v8.1h-4.6v16.7H52.6v16.3h-2.1V320h1.3v-4.4
	l-2.1-0.8l-6.4-0.6H29.7v0.5l-1.7,0.2v-20.2h-0.8v20.3l-22.5,2.3V345H1.7v22.5H0.1v82l800,82.7V367.5H795.5z M725.5,322.9
	L725.5,322.9v1.7l0,0V322.9z"/>
</svg>
